<?xml version="1.0" encoding="UTF-8" ?>
<svg xmlns="http://www.w3.org/2000/svg" xmlns:xlink="http://www.w3.org/1999/xlink" shape-rendering="crispEdges" stroke="none" preserveAspectRatio="xMidYMid slice" width="15" height="6" viewBox="0 0 15 6">
<path id="01ff845f61" fill="#615F84" d="M 12 0 L 13 0 L 13 1 L 12 1 Z M 13 0 L 14 0 L 14 1 L 13 1 Z M 11 1 L 12 1 L 12 2 L 11 2 Z M 13 1 L 14 1 L 14 2 L 13 2 Z M 14 1 L 15 1 L 15 2 L 14 2 Z M 0 2 L 1 2 L 1 3 L 0 3 Z M 1 2 L 2 2 L 2 3 L 1 3 Z M 2 2 L 3 2 L 3 3 L 2 3 Z M 3 2 L 4 2 L 4 3 L 3 3 Z M 11 2 L 12 2 L 12 3 L 11 3 Z M 12 2 L 13 2 L 13 3 L 12 3 Z M 13 2 L 14 2 L 14 3 L 13 3 Z M 14 2 L 15 2 L 15 3 L 14 3 Z M 12 3 L 13 3 L 13 4 L 12 4 Z M 13 3 L 14 3 L 14 4 L 13 4 Z M 4 4 L 5 4 L 5 5 L 4 5 Z M 7 4 L 8 4 L 8 5 L 7 5 Z M 10 4 L 11 4 L 11 5 L 10 5 Z M 5 5 L 6 5 L 6 6 L 5 6 Z M 6 5 L 7 5 L 7 6 L 6 6 Z M 8 5 L 9 5 L 9 6 L 8 6 Z M 9 5 L 10 5 L 10 6 L 9 6 Z" />
<path id="01fffaf7f5" fill="#F5F7FA" d="M 12 1 L 13 1 L 13 2 L 12 2 Z" />
<path id="01ffdac6f8" fill="#F8C6DA" d="M 0 4 L 1 4 L 1 5 L 0 5 Z M 1 4 L 2 4 L 2 5 L 1 5 Z M 2 4 L 3 4 L 3 5 L 2 5 Z M 12 4 L 13 4 L 13 5 L 12 5 Z M 13 4 L 14 4 L 14 5 L 13 5 Z M 14 4 L 15 4 L 15 5 L 14 5 Z" />
</svg>