<?xml version="1.0" encoding="UTF-8" ?>
<svg xmlns="http://www.w3.org/2000/svg" xmlns:xlink="http://www.w3.org/1999/xlink" shape-rendering="crispEdges" stroke="none" preserveAspectRatio="xMidYMid slice" width="34" height="34" viewBox="0 0 34 34">
<path id="00fffaf7f5" fill="#F5F7FA" d="M 10 0 L 11 0 L 11 1 L 10 1 Z M 11 0 L 12 0 L 12 1 L 11 1 Z M 12 0 L 13 0 L 13 1 L 12 1 Z M 13 0 L 14 0 L 14 1 L 13 1 Z M 14 0 L 15 0 L 15 1 L 14 1 Z M 15 0 L 16 0 L 16 1 L 15 1 Z M 16 0 L 17 0 L 17 1 L 16 1 Z M 17 0 L 18 0 L 18 1 L 17 1 Z M 18 0 L 19 0 L 19 1 L 18 1 Z M 19 0 L 20 0 L 20 1 L 19 1 Z M 20 0 L 21 0 L 21 1 L 20 1 Z M 21 0 L 22 0 L 22 1 L 21 1 Z M 22 0 L 23 0 L 23 1 L 22 1 Z M 23 0 L 24 0 L 24 1 L 23 1 Z M 9 1 L 10 1 L 10 2 L 9 2 Z M 24 1 L 25 1 L 25 2 L 24 2 Z M 8 2 L 9 2 L 9 3 L 8 3 Z M 10 2 L 11 2 L 11 3 L 10 3 Z M 11 2 L 12 2 L 12 3 L 11 3 Z M 12 2 L 13 2 L 13 3 L 12 3 Z M 13 2 L 14 2 L 14 3 L 13 3 Z M 14 2 L 15 2 L 15 3 L 14 3 Z M 15 2 L 16 2 L 16 3 L 15 3 Z M 16 2 L 17 2 L 17 3 L 16 3 Z M 17 2 L 18 2 L 18 3 L 17 3 Z M 18 2 L 19 2 L 19 3 L 18 3 Z M 19 2 L 20 2 L 20 3 L 19 3 Z M 20 2 L 21 2 L 21 3 L 20 3 Z M 21 2 L 22 2 L 22 3 L 21 3 Z M 22 2 L 23 2 L 23 3 L 22 3 Z M 23 2 L 24 2 L 24 3 L 23 3 Z M 25 2 L 26 2 L 26 3 L 25 3 Z M 8 3 L 9 3 L 9 4 L 8 4 Z M 10 3 L 11 3 L 11 4 L 10 4 Z M 23 3 L 24 3 L 24 4 L 23 4 Z M 25 3 L 26 3 L 26 4 L 25 4 Z M 8 4 L 9 4 L 9 5 L 8 5 Z M 10 4 L 11 4 L 11 5 L 10 5 Z M 23 4 L 24 4 L 24 5 L 23 5 Z M 25 4 L 26 4 L 26 5 L 25 5 Z M 8 5 L 9 5 L 9 6 L 8 6 Z M 10 5 L 11 5 L 11 6 L 10 6 Z M 23 5 L 24 5 L 24 6 L 23 6 Z M 25 5 L 26 5 L 26 6 L 25 6 Z M 8 6 L 9 6 L 9 7 L 8 7 Z M 10 6 L 11 6 L 11 7 L 10 7 Z M 23 6 L 24 6 L 24 7 L 23 7 Z M 25 6 L 26 6 L 26 7 L 25 7 Z M 8 7 L 9 7 L 9 8 L 8 8 Z M 10 7 L 11 7 L 11 8 L 10 8 Z M 23 7 L 24 7 L 24 8 L 23 8 Z M 25 7 L 26 7 L 26 8 L 25 8 Z M 8 8 L 9 8 L 9 9 L 8 9 Z M 10 8 L 11 8 L 11 9 L 10 9 Z M 23 8 L 24 8 L 24 9 L 23 9 Z M 25 8 L 26 8 L 26 9 L 25 9 Z M 8 9 L 9 9 L 9 10 L 8 10 Z M 10 9 L 11 9 L 11 10 L 10 10 Z M 23 9 L 24 9 L 24 10 L 23 10 Z M 25 9 L 26 9 L 26 10 L 25 10 Z M 8 10 L 9 10 L 9 11 L 8 11 Z M 10 10 L 11 10 L 11 11 L 10 11 Z M 23 10 L 24 10 L 24 11 L 23 11 Z M 25 10 L 26 10 L 26 11 L 25 11 Z M 8 11 L 9 11 L 9 12 L 8 12 Z M 10 11 L 11 11 L 11 12 L 10 12 Z M 23 11 L 24 11 L 24 12 L 23 12 Z M 25 11 L 26 11 L 26 12 L 25 12 Z M 8 12 L 9 12 L 9 13 L 8 13 Z M 10 12 L 11 12 L 11 13 L 10 13 Z M 23 12 L 24 12 L 24 13 L 23 13 Z M 25 12 L 26 12 L 26 13 L 25 13 Z M 8 13 L 9 13 L 9 14 L 8 14 Z M 10 13 L 11 13 L 11 14 L 10 14 Z M 23 13 L 24 13 L 24 14 L 23 14 Z M 25 13 L 26 13 L 26 14 L 25 14 Z M 8 14 L 9 14 L 9 15 L 8 15 Z M 10 14 L 11 14 L 11 15 L 10 15 Z M 11 14 L 12 14 L 12 15 L 11 15 Z M 12 14 L 13 14 L 13 15 L 12 15 Z M 13 14 L 14 14 L 14 15 L 13 15 Z M 14 14 L 15 14 L 15 15 L 14 15 Z M 15 14 L 16 14 L 16 15 L 15 15 Z M 16 14 L 17 14 L 17 15 L 16 15 Z M 17 14 L 18 14 L 18 15 L 17 15 Z M 18 14 L 19 14 L 19 15 L 18 15 Z M 19 14 L 20 14 L 20 15 L 19 15 Z M 20 14 L 21 14 L 21 15 L 20 15 Z M 21 14 L 22 14 L 22 15 L 21 15 Z M 22 14 L 23 14 L 23 15 L 22 15 Z M 23 14 L 24 14 L 24 15 L 23 15 Z M 25 14 L 26 14 L 26 15 L 25 15 Z M 8 15 L 9 15 L 9 16 L 8 16 Z M 25 15 L 26 15 L 26 16 L 25 16 Z M 8 16 L 9 16 L 9 17 L 8 17 Z M 25 16 L 26 16 L 26 17 L 25 17 Z M 8 17 L 9 17 L 9 18 L 8 18 Z M 25 17 L 26 17 L 26 18 L 25 18 Z M 8 18 L 9 18 L 9 19 L 8 19 Z M 25 18 L 26 18 L 26 19 L 25 19 Z M 8 19 L 9 19 L 9 20 L 8 20 Z M 25 19 L 26 19 L 26 20 L 25 20 Z M 8 20 L 9 20 L 9 21 L 8 21 Z M 25 20 L 26 20 L 26 21 L 25 21 Z M 8 21 L 9 21 L 9 22 L 8 22 Z M 25 21 L 26 21 L 26 22 L 25 22 Z M 8 22 L 9 22 L 9 23 L 8 23 Z M 25 22 L 26 22 L 26 23 L 25 23 Z M 8 23 L 9 23 L 9 24 L 8 24 Z M 25 23 L 26 23 L 26 24 L 25 24 Z M 8 24 L 9 24 L 9 25 L 8 25 Z M 25 24 L 26 24 L 26 25 L 25 25 Z M 8 25 L 9 25 L 9 26 L 8 26 Z M 25 25 L 26 25 L 26 26 L 25 26 Z M 8 26 L 9 26 L 9 27 L 8 27 Z M 25 26 L 26 26 L 26 27 L 25 27 Z M 8 27 L 9 27 L 9 28 L 8 28 Z M 25 27 L 26 27 L 26 28 L 25 28 Z M 8 28 L 9 28 L 9 29 L 8 29 Z M 25 28 L 26 28 L 26 29 L 25 29 Z M 8 29 L 9 29 L 9 30 L 8 30 Z M 25 29 L 26 29 L 26 30 L 25 30 Z M 8 30 L 9 30 L 9 31 L 8 31 Z M 25 30 L 26 30 L 26 31 L 25 31 Z M 8 31 L 9 31 L 9 32 L 8 32 Z M 25 31 L 26 31 L 26 32 L 25 32 Z M 9 32 L 10 32 L 10 33 L 9 33 Z M 24 32 L 25 32 L 25 33 L 24 33 Z M 10 33 L 11 33 L 11 34 L 10 34 Z M 11 33 L 12 33 L 12 34 L 11 34 Z M 12 33 L 13 33 L 13 34 L 12 34 Z M 13 33 L 14 33 L 14 34 L 13 34 Z M 14 33 L 15 33 L 15 34 L 14 34 Z M 15 33 L 16 33 L 16 34 L 15 34 Z M 16 33 L 17 33 L 17 34 L 16 34 Z M 17 33 L 18 33 L 18 34 L 17 34 Z M 18 33 L 19 33 L 19 34 L 18 34 Z M 19 33 L 20 33 L 20 34 L 19 34 Z M 20 33 L 21 33 L 21 34 L 20 34 Z M 21 33 L 22 33 L 22 34 L 21 34 Z M 22 33 L 23 33 L 23 34 L 22 34 Z M 23 33 L 24 33 L 24 34 L 23 34 Z" />
<path id="00ff494543" fill="#434549" d="M 10 1 L 11 1 L 11 2 L 10 2 Z M 11 1 L 12 1 L 12 2 L 11 2 Z M 12 1 L 13 1 L 13 2 L 12 2 Z M 13 1 L 14 1 L 14 2 L 13 2 Z M 14 1 L 15 1 L 15 2 L 14 2 Z M 15 1 L 16 1 L 16 2 L 15 2 Z M 16 1 L 17 1 L 17 2 L 16 2 Z M 17 1 L 18 1 L 18 2 L 17 2 Z M 18 1 L 19 1 L 19 2 L 18 2 Z M 19 1 L 20 1 L 20 2 L 19 2 Z M 20 1 L 21 1 L 21 2 L 20 2 Z M 21 1 L 22 1 L 22 2 L 21 2 Z M 22 1 L 23 1 L 23 2 L 22 2 Z M 23 1 L 24 1 L 24 2 L 23 2 Z M 9 2 L 10 2 L 10 3 L 9 3 Z M 24 2 L 25 2 L 25 3 L 24 3 Z M 9 3 L 10 3 L 10 4 L 9 4 Z M 11 3 L 12 3 L 12 4 L 11 4 Z M 12 3 L 13 3 L 13 4 L 12 4 Z M 13 3 L 14 3 L 14 4 L 13 4 Z M 14 3 L 15 3 L 15 4 L 14 4 Z M 15 3 L 16 3 L 16 4 L 15 4 Z M 16 3 L 17 3 L 17 4 L 16 4 Z M 17 3 L 18 3 L 18 4 L 17 4 Z M 18 3 L 19 3 L 19 4 L 18 4 Z M 19 3 L 20 3 L 20 4 L 19 4 Z M 20 3 L 21 3 L 21 4 L 20 4 Z M 21 3 L 22 3 L 22 4 L 21 4 Z M 22 3 L 23 3 L 23 4 L 22 4 Z M 24 3 L 25 3 L 25 4 L 24 4 Z M 9 4 L 10 4 L 10 5 L 9 5 Z M 11 4 L 12 4 L 12 5 L 11 5 Z M 22 4 L 23 4 L 23 5 L 22 5 Z M 24 4 L 25 4 L 25 5 L 24 5 Z M 9 5 L 10 5 L 10 6 L 9 6 Z M 11 5 L 12 5 L 12 6 L 11 6 Z M 22 5 L 23 5 L 23 6 L 22 6 Z M 24 5 L 25 5 L 25 6 L 24 6 Z M 9 6 L 10 6 L 10 7 L 9 7 Z M 11 6 L 12 6 L 12 7 L 11 7 Z M 22 6 L 23 6 L 23 7 L 22 7 Z M 24 6 L 25 6 L 25 7 L 24 7 Z M 9 7 L 10 7 L 10 8 L 9 8 Z M 11 7 L 12 7 L 12 8 L 11 8 Z M 22 7 L 23 7 L 23 8 L 22 8 Z M 24 7 L 25 7 L 25 8 L 24 8 Z M 9 8 L 10 8 L 10 9 L 9 9 Z M 11 8 L 12 8 L 12 9 L 11 9 Z M 22 8 L 23 8 L 23 9 L 22 9 Z M 24 8 L 25 8 L 25 9 L 24 9 Z M 9 9 L 10 9 L 10 10 L 9 10 Z M 11 9 L 12 9 L 12 10 L 11 10 Z M 22 9 L 23 9 L 23 10 L 22 10 Z M 24 9 L 25 9 L 25 10 L 24 10 Z M 9 10 L 10 10 L 10 11 L 9 11 Z M 11 10 L 12 10 L 12 11 L 11 11 Z M 22 10 L 23 10 L 23 11 L 22 11 Z M 24 10 L 25 10 L 25 11 L 24 11 Z M 9 11 L 10 11 L 10 12 L 9 12 Z M 11 11 L 12 11 L 12 12 L 11 12 Z M 22 11 L 23 11 L 23 12 L 22 12 Z M 24 11 L 25 11 L 25 12 L 24 12 Z M 9 12 L 10 12 L 10 13 L 9 13 Z M 11 12 L 12 12 L 12 13 L 11 13 Z M 22 12 L 23 12 L 23 13 L 22 13 Z M 24 12 L 25 12 L 25 13 L 24 13 Z M 9 13 L 10 13 L 10 14 L 9 14 Z M 11 13 L 12 13 L 12 14 L 11 14 Z M 12 13 L 13 13 L 13 14 L 12 14 Z M 13 13 L 14 13 L 14 14 L 13 14 Z M 14 13 L 15 13 L 15 14 L 14 14 Z M 15 13 L 16 13 L 16 14 L 15 14 Z M 16 13 L 17 13 L 17 14 L 16 14 Z M 17 13 L 18 13 L 18 14 L 17 14 Z M 18 13 L 19 13 L 19 14 L 18 14 Z M 19 13 L 20 13 L 20 14 L 19 14 Z M 20 13 L 21 13 L 21 14 L 20 14 Z M 21 13 L 22 13 L 22 14 L 21 14 Z M 22 13 L 23 13 L 23 14 L 22 14 Z M 24 13 L 25 13 L 25 14 L 24 14 Z M 9 14 L 10 14 L 10 15 L 9 15 Z M 24 14 L 25 14 L 25 15 L 24 15 Z M 9 15 L 10 15 L 10 16 L 9 16 Z M 10 15 L 11 15 L 11 16 L 10 16 Z M 11 15 L 12 15 L 12 16 L 11 16 Z M 12 15 L 13 15 L 13 16 L 12 16 Z M 13 15 L 14 15 L 14 16 L 13 16 Z M 14 15 L 15 15 L 15 16 L 14 16 Z M 15 15 L 16 15 L 16 16 L 15 16 Z M 16 15 L 17 15 L 17 16 L 16 16 Z M 17 15 L 18 15 L 18 16 L 17 16 Z M 18 15 L 19 15 L 19 16 L 18 16 Z M 19 15 L 20 15 L 20 16 L 19 16 Z M 20 15 L 21 15 L 21 16 L 20 16 Z M 21 15 L 22 15 L 22 16 L 21 16 Z M 22 15 L 23 15 L 23 16 L 22 16 Z M 23 15 L 24 15 L 24 16 L 23 16 Z M 24 15 L 25 15 L 25 16 L 24 16 Z M 9 16 L 10 16 L 10 17 L 9 17 Z M 24 16 L 25 16 L 25 17 L 24 17 Z M 9 17 L 10 17 L 10 18 L 9 18 Z M 11 17 L 12 17 L 12 18 L 11 18 Z M 12 17 L 13 17 L 13 18 L 12 18 Z M 13 17 L 14 17 L 14 18 L 13 18 Z M 20 17 L 21 17 L 21 18 L 20 18 Z M 21 17 L 22 17 L 22 18 L 21 18 Z M 22 17 L 23 17 L 23 18 L 22 18 Z M 24 17 L 25 17 L 25 18 L 24 18 Z M 9 18 L 10 18 L 10 19 L 9 19 Z M 11 18 L 12 18 L 12 19 L 11 19 Z M 12 18 L 13 18 L 13 19 L 12 19 Z M 13 18 L 14 18 L 14 19 L 13 19 Z M 16 18 L 17 18 L 17 19 L 16 19 Z M 17 18 L 18 18 L 18 19 L 17 19 Z M 20 18 L 21 18 L 21 19 L 20 19 Z M 21 18 L 22 18 L 22 19 L 21 19 Z M 22 18 L 23 18 L 23 19 L 22 19 Z M 24 18 L 25 18 L 25 19 L 24 19 Z M 9 19 L 10 19 L 10 20 L 9 20 Z M 15 19 L 16 19 L 16 20 L 15 20 Z M 18 19 L 19 19 L 19 20 L 18 20 Z M 24 19 L 25 19 L 25 20 L 24 20 Z M 9 20 L 10 20 L 10 21 L 9 21 Z M 11 20 L 12 20 L 12 21 L 11 21 Z M 12 20 L 13 20 L 13 21 L 12 21 Z M 13 20 L 14 20 L 14 21 L 13 21 Z M 15 20 L 16 20 L 16 21 L 15 21 Z M 18 20 L 19 20 L 19 21 L 18 21 Z M 20 20 L 21 20 L 21 21 L 20 21 Z M 21 20 L 22 20 L 22 21 L 21 21 Z M 22 20 L 23 20 L 23 21 L 22 21 Z M 24 20 L 25 20 L 25 21 L 24 21 Z M 9 21 L 10 21 L 10 22 L 9 22 Z M 11 21 L 12 21 L 12 22 L 11 22 Z M 12 21 L 13 21 L 13 22 L 12 22 Z M 13 21 L 14 21 L 14 22 L 13 22 Z M 16 21 L 17 21 L 17 22 L 16 22 Z M 17 21 L 18 21 L 18 22 L 17 22 Z M 20 21 L 21 21 L 21 22 L 20 22 Z M 21 21 L 22 21 L 22 22 L 21 22 Z M 22 21 L 23 21 L 23 22 L 22 22 Z M 24 21 L 25 21 L 25 22 L 24 22 Z M 9 22 L 10 22 L 10 23 L 9 23 Z M 24 22 L 25 22 L 25 23 L 24 23 Z M 9 23 L 10 23 L 10 24 L 9 24 Z M 12 23 L 13 23 L 13 24 L 12 24 Z M 13 23 L 14 23 L 14 24 L 13 24 Z M 16 23 L 17 23 L 17 24 L 16 24 Z M 17 23 L 18 23 L 18 24 L 17 24 Z M 20 23 L 21 23 L 21 24 L 20 24 Z M 21 23 L 22 23 L 22 24 L 21 24 Z M 24 23 L 25 23 L 25 24 L 24 24 Z M 9 24 L 10 24 L 10 25 L 9 25 Z M 12 24 L 13 24 L 13 25 L 12 25 Z M 13 24 L 14 24 L 14 25 L 13 25 Z M 16 24 L 17 24 L 17 25 L 16 25 Z M 17 24 L 18 24 L 18 25 L 17 25 Z M 20 24 L 21 24 L 21 25 L 20 25 Z M 21 24 L 22 24 L 22 25 L 21 25 Z M 24 24 L 25 24 L 25 25 L 24 25 Z M 9 25 L 10 25 L 10 26 L 9 26 Z M 24 25 L 25 25 L 25 26 L 24 26 Z M 9 26 L 10 26 L 10 27 L 9 27 Z M 12 26 L 13 26 L 13 27 L 12 27 Z M 13 26 L 14 26 L 14 27 L 13 27 Z M 16 26 L 17 26 L 17 27 L 16 27 Z M 17 26 L 18 26 L 18 27 L 17 27 Z M 20 26 L 21 26 L 21 27 L 20 27 Z M 21 26 L 22 26 L 22 27 L 21 27 Z M 24 26 L 25 26 L 25 27 L 24 27 Z M 9 27 L 10 27 L 10 28 L 9 28 Z M 12 27 L 13 27 L 13 28 L 12 28 Z M 13 27 L 14 27 L 14 28 L 13 28 Z M 16 27 L 17 27 L 17 28 L 16 28 Z M 17 27 L 18 27 L 18 28 L 17 28 Z M 20 27 L 21 27 L 21 28 L 20 28 Z M 21 27 L 22 27 L 22 28 L 21 28 Z M 24 27 L 25 27 L 25 28 L 24 28 Z M 9 28 L 10 28 L 10 29 L 9 29 Z M 24 28 L 25 28 L 25 29 L 24 29 Z M 9 29 L 10 29 L 10 30 L 9 30 Z M 12 29 L 13 29 L 13 30 L 12 30 Z M 13 29 L 14 29 L 14 30 L 13 30 Z M 16 29 L 17 29 L 17 30 L 16 30 Z M 17 29 L 18 29 L 18 30 L 17 30 Z M 20 29 L 21 29 L 21 30 L 20 30 Z M 21 29 L 22 29 L 22 30 L 21 30 Z M 24 29 L 25 29 L 25 30 L 24 30 Z M 9 30 L 10 30 L 10 31 L 9 31 Z M 12 30 L 13 30 L 13 31 L 12 31 Z M 13 30 L 14 30 L 14 31 L 13 31 Z M 16 30 L 17 30 L 17 31 L 16 31 Z M 17 30 L 18 30 L 18 31 L 17 31 Z M 20 30 L 21 30 L 21 31 L 20 31 Z M 21 30 L 22 30 L 22 31 L 21 31 Z M 24 30 L 25 30 L 25 31 L 24 31 Z M 9 31 L 10 31 L 10 32 L 9 32 Z M 24 31 L 25 31 L 25 32 L 24 32 Z M 10 32 L 11 32 L 11 33 L 10 33 Z M 11 32 L 12 32 L 12 33 L 11 33 Z M 12 32 L 13 32 L 13 33 L 12 33 Z M 13 32 L 14 32 L 14 33 L 13 33 Z M 14 32 L 15 32 L 15 33 L 14 33 Z M 15 32 L 16 32 L 16 33 L 15 33 Z M 16 32 L 17 32 L 17 33 L 16 33 Z M 17 32 L 18 32 L 18 33 L 17 33 Z M 18 32 L 19 32 L 19 33 L 18 33 Z M 19 32 L 20 32 L 20 33 L 19 33 Z M 20 32 L 21 32 L 21 33 L 20 33 Z M 21 32 L 22 32 L 22 33 L 21 33 Z M 22 32 L 23 32 L 23 33 L 22 33 Z M 23 32 L 24 32 L 24 33 L 23 33 Z" />
<path id="00ff716862" fill="#626871" d="M 12 4 L 13 4 L 13 5 L 12 5 Z M 13 4 L 14 4 L 14 5 L 13 5 Z M 14 4 L 15 4 L 15 5 L 14 5 Z M 15 4 L 16 4 L 16 5 L 15 5 Z M 16 4 L 17 4 L 17 5 L 16 5 Z M 17 4 L 18 4 L 18 5 L 17 5 Z M 18 4 L 19 4 L 19 5 L 18 5 Z M 19 4 L 20 4 L 20 5 L 19 5 Z M 20 4 L 21 4 L 21 5 L 20 5 Z M 21 4 L 22 4 L 22 5 L 21 5 Z M 12 5 L 13 5 L 13 6 L 12 6 Z M 13 5 L 14 5 L 14 6 L 13 6 Z M 14 5 L 15 5 L 15 6 L 14 6 Z M 15 5 L 16 5 L 16 6 L 15 6 Z M 16 5 L 17 5 L 17 6 L 16 6 Z M 17 5 L 18 5 L 18 6 L 17 6 Z M 18 5 L 19 5 L 19 6 L 18 6 Z M 19 5 L 20 5 L 20 6 L 19 6 Z M 20 5 L 21 5 L 21 6 L 20 6 Z M 21 5 L 22 5 L 22 6 L 21 6 Z M 12 6 L 13 6 L 13 7 L 12 7 Z M 13 6 L 14 6 L 14 7 L 13 7 Z M 14 6 L 15 6 L 15 7 L 14 7 Z M 15 6 L 16 6 L 16 7 L 15 7 Z M 16 6 L 17 6 L 17 7 L 16 7 Z M 17 6 L 18 6 L 18 7 L 17 7 Z M 18 6 L 19 6 L 19 7 L 18 7 Z M 19 6 L 20 6 L 20 7 L 19 7 Z M 20 6 L 21 6 L 21 7 L 20 7 Z M 21 6 L 22 6 L 22 7 L 21 7 Z M 12 7 L 13 7 L 13 8 L 12 8 Z M 13 7 L 14 7 L 14 8 L 13 8 Z M 14 7 L 15 7 L 15 8 L 14 8 Z M 15 7 L 16 7 L 16 8 L 15 8 Z M 16 7 L 17 7 L 17 8 L 16 8 Z M 17 7 L 18 7 L 18 8 L 17 8 Z M 18 7 L 19 7 L 19 8 L 18 8 Z M 19 7 L 20 7 L 20 8 L 19 8 Z M 20 7 L 21 7 L 21 8 L 20 8 Z M 21 7 L 22 7 L 22 8 L 21 8 Z M 12 8 L 13 8 L 13 9 L 12 9 Z M 13 8 L 14 8 L 14 9 L 13 9 Z M 14 8 L 15 8 L 15 9 L 14 9 Z M 15 8 L 16 8 L 16 9 L 15 9 Z M 16 8 L 17 8 L 17 9 L 16 9 Z M 17 8 L 18 8 L 18 9 L 17 9 Z M 18 8 L 19 8 L 19 9 L 18 9 Z M 19 8 L 20 8 L 20 9 L 19 9 Z M 20 8 L 21 8 L 21 9 L 20 9 Z M 21 8 L 22 8 L 22 9 L 21 9 Z M 12 9 L 13 9 L 13 10 L 12 10 Z M 13 9 L 14 9 L 14 10 L 13 10 Z M 14 9 L 15 9 L 15 10 L 14 10 Z M 15 9 L 16 9 L 16 10 L 15 10 Z M 16 9 L 17 9 L 17 10 L 16 10 Z M 17 9 L 18 9 L 18 10 L 17 10 Z M 18 9 L 19 9 L 19 10 L 18 10 Z M 19 9 L 20 9 L 20 10 L 19 10 Z M 20 9 L 21 9 L 21 10 L 20 10 Z M 21 9 L 22 9 L 22 10 L 21 10 Z M 12 10 L 13 10 L 13 11 L 12 11 Z M 13 10 L 14 10 L 14 11 L 13 11 Z M 14 10 L 15 10 L 15 11 L 14 11 Z M 15 10 L 16 10 L 16 11 L 15 11 Z M 16 10 L 17 10 L 17 11 L 16 11 Z M 17 10 L 18 10 L 18 11 L 17 11 Z M 18 10 L 19 10 L 19 11 L 18 11 Z M 19 10 L 20 10 L 20 11 L 19 11 Z M 20 10 L 21 10 L 21 11 L 20 11 Z M 21 10 L 22 10 L 22 11 L 21 11 Z M 12 11 L 13 11 L 13 12 L 12 12 Z M 13 11 L 14 11 L 14 12 L 13 12 Z M 14 11 L 15 11 L 15 12 L 14 12 Z M 15 11 L 16 11 L 16 12 L 15 12 Z M 16 11 L 17 11 L 17 12 L 16 12 Z M 17 11 L 18 11 L 18 12 L 17 12 Z M 18 11 L 19 11 L 19 12 L 18 12 Z M 19 11 L 20 11 L 20 12 L 19 12 Z M 20 11 L 21 11 L 21 12 L 20 12 Z M 21 11 L 22 11 L 22 12 L 21 12 Z M 12 12 L 13 12 L 13 13 L 12 13 Z M 13 12 L 14 12 L 14 13 L 13 13 Z M 14 12 L 15 12 L 15 13 L 14 13 Z M 15 12 L 16 12 L 16 13 L 15 13 Z M 16 12 L 17 12 L 17 13 L 16 13 Z M 17 12 L 18 12 L 18 13 L 17 13 Z M 18 12 L 19 12 L 19 13 L 18 13 Z M 19 12 L 20 12 L 20 13 L 19 13 Z M 20 12 L 21 12 L 21 13 L 20 13 Z M 21 12 L 22 12 L 22 13 L 21 13 Z" />
<path id="00ffdad2cd" fill="#CDD2DA" d="M 10 16 L 11 16 L 11 17 L 10 17 Z M 11 16 L 12 16 L 12 17 L 11 17 Z M 12 16 L 13 16 L 13 17 L 12 17 Z M 13 16 L 14 16 L 14 17 L 13 17 Z M 14 16 L 15 16 L 15 17 L 14 17 Z M 15 16 L 16 16 L 16 17 L 15 17 Z M 16 16 L 17 16 L 17 17 L 16 17 Z M 17 16 L 18 16 L 18 17 L 17 17 Z M 18 16 L 19 16 L 19 17 L 18 17 Z M 19 16 L 20 16 L 20 17 L 19 17 Z M 20 16 L 21 16 L 21 17 L 20 17 Z M 21 16 L 22 16 L 22 17 L 21 17 Z M 22 16 L 23 16 L 23 17 L 22 17 Z M 23 16 L 24 16 L 24 17 L 23 17 Z" />
<path id="00fff6f0eb" fill="#EBF0F6" d="M 10 17 L 11 17 L 11 18 L 10 18 Z M 14 17 L 15 17 L 15 18 L 14 18 Z M 15 17 L 16 17 L 16 18 L 15 18 Z M 16 17 L 17 17 L 17 18 L 16 18 Z M 17 17 L 18 17 L 18 18 L 17 18 Z M 18 17 L 19 17 L 19 18 L 18 18 Z M 19 17 L 20 17 L 20 18 L 19 18 Z M 23 17 L 24 17 L 24 18 L 23 18 Z M 10 18 L 11 18 L 11 19 L 10 19 Z M 14 18 L 15 18 L 15 19 L 14 19 Z M 15 18 L 16 18 L 16 19 L 15 19 Z M 18 18 L 19 18 L 19 19 L 18 19 Z M 19 18 L 20 18 L 20 19 L 19 19 Z M 23 18 L 24 18 L 24 19 L 23 19 Z M 10 19 L 11 19 L 11 20 L 10 20 Z M 11 19 L 12 19 L 12 20 L 11 20 Z M 12 19 L 13 19 L 13 20 L 12 20 Z M 13 19 L 14 19 L 14 20 L 13 20 Z M 14 19 L 15 19 L 15 20 L 14 20 Z M 16 19 L 17 19 L 17 20 L 16 20 Z M 17 19 L 18 19 L 18 20 L 17 20 Z M 19 19 L 20 19 L 20 20 L 19 20 Z M 20 19 L 21 19 L 21 20 L 20 20 Z M 21 19 L 22 19 L 22 20 L 21 20 Z M 22 19 L 23 19 L 23 20 L 22 20 Z M 23 19 L 24 19 L 24 20 L 23 20 Z M 10 20 L 11 20 L 11 21 L 10 21 Z M 14 20 L 15 20 L 15 21 L 14 21 Z M 16 20 L 17 20 L 17 21 L 16 21 Z M 17 20 L 18 20 L 18 21 L 17 21 Z M 19 20 L 20 20 L 20 21 L 19 21 Z M 23 20 L 24 20 L 24 21 L 23 21 Z M 10 21 L 11 21 L 11 22 L 10 22 Z M 14 21 L 15 21 L 15 22 L 14 22 Z M 15 21 L 16 21 L 16 22 L 15 22 Z M 18 21 L 19 21 L 19 22 L 18 22 Z M 19 21 L 20 21 L 20 22 L 19 22 Z M 23 21 L 24 21 L 24 22 L 23 22 Z M 10 22 L 11 22 L 11 23 L 10 23 Z M 11 22 L 12 22 L 12 23 L 11 23 Z M 12 22 L 13 22 L 13 23 L 12 23 Z M 13 22 L 14 22 L 14 23 L 13 23 Z M 14 22 L 15 22 L 15 23 L 14 23 Z M 15 22 L 16 22 L 16 23 L 15 23 Z M 16 22 L 17 22 L 17 23 L 16 23 Z M 17 22 L 18 22 L 18 23 L 17 23 Z M 18 22 L 19 22 L 19 23 L 18 23 Z M 19 22 L 20 22 L 20 23 L 19 23 Z M 20 22 L 21 22 L 21 23 L 20 23 Z M 21 22 L 22 22 L 22 23 L 21 23 Z M 22 22 L 23 22 L 23 23 L 22 23 Z M 23 22 L 24 22 L 24 23 L 23 23 Z M 10 23 L 11 23 L 11 24 L 10 24 Z M 11 23 L 12 23 L 12 24 L 11 24 Z M 14 23 L 15 23 L 15 24 L 14 24 Z M 15 23 L 16 23 L 16 24 L 15 24 Z M 18 23 L 19 23 L 19 24 L 18 24 Z M 19 23 L 20 23 L 20 24 L 19 24 Z M 22 23 L 23 23 L 23 24 L 22 24 Z M 23 23 L 24 23 L 24 24 L 23 24 Z M 10 24 L 11 24 L 11 25 L 10 25 Z M 11 24 L 12 24 L 12 25 L 11 25 Z M 14 24 L 15 24 L 15 25 L 14 25 Z M 15 24 L 16 24 L 16 25 L 15 25 Z M 18 24 L 19 24 L 19 25 L 18 25 Z M 19 24 L 20 24 L 20 25 L 19 25 Z M 22 24 L 23 24 L 23 25 L 22 25 Z M 23 24 L 24 24 L 24 25 L 23 25 Z M 10 25 L 11 25 L 11 26 L 10 26 Z M 11 25 L 12 25 L 12 26 L 11 26 Z M 12 25 L 13 25 L 13 26 L 12 26 Z M 13 25 L 14 25 L 14 26 L 13 26 Z M 14 25 L 15 25 L 15 26 L 14 26 Z M 15 25 L 16 25 L 16 26 L 15 26 Z M 16 25 L 17 25 L 17 26 L 16 26 Z M 17 25 L 18 25 L 18 26 L 17 26 Z M 18 25 L 19 25 L 19 26 L 18 26 Z M 19 25 L 20 25 L 20 26 L 19 26 Z M 20 25 L 21 25 L 21 26 L 20 26 Z M 21 25 L 22 25 L 22 26 L 21 26 Z M 22 25 L 23 25 L 23 26 L 22 26 Z M 23 25 L 24 25 L 24 26 L 23 26 Z M 10 26 L 11 26 L 11 27 L 10 27 Z M 11 26 L 12 26 L 12 27 L 11 27 Z M 14 26 L 15 26 L 15 27 L 14 27 Z M 15 26 L 16 26 L 16 27 L 15 27 Z M 18 26 L 19 26 L 19 27 L 18 27 Z M 19 26 L 20 26 L 20 27 L 19 27 Z M 22 26 L 23 26 L 23 27 L 22 27 Z M 23 26 L 24 26 L 24 27 L 23 27 Z M 10 27 L 11 27 L 11 28 L 10 28 Z M 11 27 L 12 27 L 12 28 L 11 28 Z M 14 27 L 15 27 L 15 28 L 14 28 Z M 15 27 L 16 27 L 16 28 L 15 28 Z M 18 27 L 19 27 L 19 28 L 18 28 Z M 19 27 L 20 27 L 20 28 L 19 28 Z M 22 27 L 23 27 L 23 28 L 22 28 Z M 23 27 L 24 27 L 24 28 L 23 28 Z M 10 28 L 11 28 L 11 29 L 10 29 Z M 11 28 L 12 28 L 12 29 L 11 29 Z M 12 28 L 13 28 L 13 29 L 12 29 Z M 13 28 L 14 28 L 14 29 L 13 29 Z M 14 28 L 15 28 L 15 29 L 14 29 Z M 15 28 L 16 28 L 16 29 L 15 29 Z M 16 28 L 17 28 L 17 29 L 16 29 Z M 17 28 L 18 28 L 18 29 L 17 29 Z M 18 28 L 19 28 L 19 29 L 18 29 Z M 19 28 L 20 28 L 20 29 L 19 29 Z M 20 28 L 21 28 L 21 29 L 20 29 Z M 21 28 L 22 28 L 22 29 L 21 29 Z M 22 28 L 23 28 L 23 29 L 22 29 Z M 23 28 L 24 28 L 24 29 L 23 29 Z M 10 29 L 11 29 L 11 30 L 10 30 Z M 11 29 L 12 29 L 12 30 L 11 30 Z M 14 29 L 15 29 L 15 30 L 14 30 Z M 15 29 L 16 29 L 16 30 L 15 30 Z M 18 29 L 19 29 L 19 30 L 18 30 Z M 19 29 L 20 29 L 20 30 L 19 30 Z M 22 29 L 23 29 L 23 30 L 22 30 Z M 23 29 L 24 29 L 24 30 L 23 30 Z M 10 30 L 11 30 L 11 31 L 10 31 Z M 11 30 L 12 30 L 12 31 L 11 31 Z M 14 30 L 15 30 L 15 31 L 14 31 Z M 15 30 L 16 30 L 16 31 L 15 31 Z M 18 30 L 19 30 L 19 31 L 18 31 Z M 19 30 L 20 30 L 20 31 L 19 31 Z M 22 30 L 23 30 L 23 31 L 22 31 Z M 23 30 L 24 30 L 24 31 L 23 31 Z M 10 31 L 11 31 L 11 32 L 10 32 Z M 11 31 L 12 31 L 12 32 L 11 32 Z M 12 31 L 13 31 L 13 32 L 12 32 Z M 13 31 L 14 31 L 14 32 L 13 32 Z M 14 31 L 15 31 L 15 32 L 14 32 Z M 15 31 L 16 31 L 16 32 L 15 32 Z M 16 31 L 17 31 L 17 32 L 16 32 Z M 17 31 L 18 31 L 18 32 L 17 32 Z M 18 31 L 19 31 L 19 32 L 18 32 Z M 19 31 L 20 31 L 20 32 L 19 32 Z M 20 31 L 21 31 L 21 32 L 20 32 Z M 21 31 L 22 31 L 22 32 L 21 32 Z M 22 31 L 23 31 L 23 32 L 22 32 Z M 23 31 L 24 31 L 24 32 L 23 32 Z" />
</svg>