<?xml version="1.0" encoding="UTF-8" ?>
<svg xmlns="http://www.w3.org/2000/svg" xmlns:xlink="http://www.w3.org/1999/xlink" shape-rendering="crispEdges" stroke="none" preserveAspectRatio="xMidYMid slice" width="6" height="6" viewBox="0 0 6 6">
<path id="00fffaf7f5" fill="#F5F7FA" d="M 5 0 L 6 0 L 6 1 L 5 1 Z M 0 1 L 1 1 L 1 2 L 0 2 Z M 4 1 L 5 1 L 5 2 L 4 2 Z M 5 1 L 6 1 L 6 2 L 5 2 Z M 0 2 L 1 2 L 1 3 L 0 3 Z M 1 2 L 2 2 L 2 3 L 1 3 Z M 3 2 L 4 2 L 4 3 L 3 3 Z M 4 2 L 5 2 L 5 3 L 4 3 Z M 5 2 L 6 2 L 6 3 L 5 3 Z M 0 3 L 1 3 L 1 4 L 0 4 Z M 1 3 L 2 3 L 2 4 L 1 4 Z M 2 3 L 3 3 L 3 4 L 2 4 Z M 3 3 L 4 3 L 4 4 L 3 4 Z M 4 3 L 5 3 L 5 4 L 4 4 Z M 1 4 L 2 4 L 2 5 L 1 5 Z M 2 4 L 3 4 L 3 5 L 2 5 Z M 3 4 L 4 4 L 4 5 L 3 5 Z M 2 5 L 3 5 L 3 6 L 2 6 Z" />
</svg>