<?xml version="1.0" encoding="UTF-8" ?>
<svg xmlns="http://www.w3.org/2000/svg" xmlns:xlink="http://www.w3.org/1999/xlink" shape-rendering="crispEdges" stroke="none" preserveAspectRatio="xMidYMid slice" width="10" height="10" viewBox="0 0 10 10">
<path id="00fffaf7f5" fill="#F5F7FA" d="M 2 0 L 3 0 L 3 1 L 2 1 Z M 3 0 L 4 0 L 4 1 L 3 1 Z M 4 0 L 5 0 L 5 1 L 4 1 Z M 5 0 L 6 0 L 6 1 L 5 1 Z M 6 0 L 7 0 L 7 1 L 6 1 Z M 7 0 L 8 0 L 8 1 L 7 1 Z M 1 1 L 2 1 L 2 2 L 1 2 Z M 8 1 L 9 1 L 9 2 L 8 2 Z M 0 2 L 1 2 L 1 3 L 0 3 Z M 7 2 L 8 2 L 8 3 L 7 3 Z M 0 3 L 1 3 L 1 4 L 0 4 Z M 3 3 L 4 3 L 4 4 L 3 4 Z M 4 3 L 5 3 L 5 4 L 4 4 Z M 5 3 L 6 3 L 6 4 L 5 4 Z M 6 3 L 7 3 L 7 4 L 6 4 Z M 0 4 L 1 4 L 1 5 L 0 5 Z M 3 4 L 4 4 L 4 5 L 3 5 Z M 4 4 L 5 4 L 5 5 L 4 5 Z M 5 4 L 6 4 L 6 5 L 5 5 Z M 6 4 L 7 4 L 7 5 L 6 5 Z M 0 5 L 1 5 L 1 6 L 0 6 Z M 3 5 L 4 5 L 4 6 L 3 6 Z M 4 5 L 5 5 L 5 6 L 4 6 Z M 5 5 L 6 5 L 6 6 L 5 6 Z M 6 5 L 7 5 L 7 6 L 6 6 Z M 0 6 L 1 6 L 1 7 L 0 7 Z M 3 6 L 4 6 L 4 7 L 3 7 Z M 4 6 L 5 6 L 5 7 L 4 7 Z M 5 6 L 6 6 L 6 7 L 5 7 Z M 6 6 L 7 6 L 7 7 L 6 7 Z M 0 7 L 1 7 L 1 8 L 0 8 Z M 2 7 L 3 7 L 3 8 L 2 8 Z M 1 8 L 2 8 L 2 9 L 1 9 Z" />
<path id="00ff7f7373" fill="#73737F" d="M 2 1 L 3 1 L 3 2 L 2 2 Z M 3 1 L 4 1 L 4 2 L 3 2 Z M 4 1 L 5 1 L 5 2 L 4 2 Z M 5 1 L 6 1 L 6 2 L 5 2 Z M 6 1 L 7 1 L 7 2 L 6 2 Z M 7 1 L 8 1 L 8 2 L 7 2 Z M 1 2 L 2 2 L 2 3 L 1 3 Z M 1 3 L 2 3 L 2 4 L 1 4 Z M 1 4 L 2 4 L 2 5 L 1 5 Z M 1 5 L 2 5 L 2 6 L 1 6 Z M 1 6 L 2 6 L 2 7 L 1 7 Z M 1 7 L 2 7 L 2 8 L 1 8 Z" />
<path id="00ffffffff" fill="#FFFFFF" d="M 2 2 L 3 2 L 3 3 L 2 3 Z M 3 2 L 4 2 L 4 3 L 3 3 Z M 4 2 L 5 2 L 5 3 L 4 3 Z M 5 2 L 6 2 L 6 3 L 5 3 Z M 6 2 L 7 2 L 7 3 L 6 3 Z M 2 3 L 3 3 L 3 4 L 2 4 Z M 2 4 L 3 4 L 3 5 L 2 5 Z M 2 5 L 3 5 L 3 6 L 2 6 Z M 2 6 L 3 6 L 3 7 L 2 7 Z" />
<path id="00ff695c5b" fill="#5B5C69" d="M 8 2 L 9 2 L 9 3 L 8 3 Z M 8 3 L 9 3 L 9 4 L 8 4 Z M 8 4 L 9 4 L 9 5 L 8 5 Z M 8 5 L 9 5 L 9 6 L 8 6 Z M 8 6 L 9 6 L 9 7 L 8 7 Z M 8 7 L 9 7 L 9 8 L 8 8 Z M 2 8 L 3 8 L 3 9 L 2 9 Z M 3 8 L 4 8 L 4 9 L 3 9 Z M 4 8 L 5 8 L 5 9 L 4 9 Z M 5 8 L 6 8 L 6 9 L 5 9 Z M 6 8 L 7 8 L 7 9 L 6 9 Z M 7 8 L 8 8 L 8 9 L 7 9 Z" />
<path id="00ffdad2cd" fill="#CDD2DA" d="M 7 3 L 8 3 L 8 4 L 7 4 Z M 7 4 L 8 4 L 8 5 L 7 5 Z M 7 5 L 8 5 L 8 6 L 7 6 Z M 7 6 L 8 6 L 8 7 L 7 7 Z M 3 7 L 4 7 L 4 8 L 3 8 Z M 4 7 L 5 7 L 5 8 L 4 8 Z M 5 7 L 6 7 L 6 8 L 5 8 Z M 6 7 L 7 7 L 7 8 L 6 8 Z M 7 7 L 8 7 L 8 8 L 7 8 Z" />
<path id="00ffdbc7ba" fill="#BAC7DB" d="M 9 3 L 10 3 L 10 4 L 9 4 Z M 9 4 L 10 4 L 10 5 L 9 5 Z M 9 5 L 10 5 L 10 6 L 9 6 Z M 9 6 L 10 6 L 10 7 L 9 7 Z M 9 7 L 10 7 L 10 8 L 9 8 Z M 8 8 L 9 8 L 9 9 L 8 9 Z M 3 9 L 4 9 L 4 10 L 3 10 Z M 4 9 L 5 9 L 5 10 L 4 10 Z M 5 9 L 6 9 L 6 10 L 5 10 Z M 6 9 L 7 9 L 7 10 L 6 10 Z M 7 9 L 8 9 L 8 10 L 7 10 Z" />
</svg>