<?xml version="1.0" encoding="UTF-8" ?>
<svg xmlns="http://www.w3.org/2000/svg" xmlns:xlink="http://www.w3.org/1999/xlink" shape-rendering="crispEdges" stroke="none" preserveAspectRatio="xMidYMid slice" width="6" height="2" viewBox="0 0 6 2">
<path id="00ff695c5b" fill="#5B5C69" d="M 0 0 L 1 0 L 1 1 L 0 1 Z M 5 0 L 6 0 L 6 1 L 5 1 Z M 0 1 L 1 1 L 1 2 L 0 2 Z M 1 1 L 2 1 L 2 2 L 1 2 Z M 2 1 L 3 1 L 3 2 L 2 2 Z M 3 1 L 4 1 L 4 2 L 3 2 Z M 4 1 L 5 1 L 5 2 L 4 2 Z M 5 1 L 6 1 L 6 2 L 5 2 Z" />
</svg>