<?xml version="1.0" encoding="UTF-8" ?>
<svg xmlns="http://www.w3.org/2000/svg" xmlns:xlink="http://www.w3.org/1999/xlink" shape-rendering="crispEdges" stroke="none" preserveAspectRatio="xMidYMid slice" width="7" height="3" viewBox="0 0 7 3">
<path id="00ff695c5b" fill="#5B5C69" d="M 1 0 L 2 0 L 2 1 L 1 1 Z M 5 0 L 6 0 L 6 1 L 5 1 Z M 0 1 L 1 1 L 1 2 L 0 2 Z M 2 1 L 3 1 L 3 2 L 2 2 Z M 4 1 L 5 1 L 5 2 L 4 2 Z M 6 1 L 7 1 L 7 2 L 6 2 Z M 1 2 L 2 2 L 2 3 L 1 3 Z M 2 2 L 3 2 L 3 3 L 2 3 Z M 3 2 L 4 2 L 4 3 L 3 3 Z M 4 2 L 5 2 L 5 3 L 4 3 Z M 5 2 L 6 2 L 6 3 L 5 3 Z" />
</svg>