<svg xmlns="http://www.w3.org/2000/svg" viewBox="0 -0.5 88 258" shape-rendering="crispEdges">
<metadata>Made with Pixels to Svg https://codepen.io/shshaw/pen/XbxvNj</metadata>
<path stroke="#73737f" d="M3 0h82M2 1h1M85 1h1M1 2h1M0 3h1M0 4h1M0 5h1M40 5h2M45 5h2M0 6h1M0 7h1M40 7h2M45 7h2M0 8h1M0 9h1M0 10h1M0 11h1M0 12h1M7 12h74M0 13h1M6 13h1M81 13h1M0 14h1M5 14h1M82 14h1M0 15h1M5 15h1M82 15h1M0 16h1M5 16h1M9 16h70M82 16h1M0 17h1M5 17h1M9 17h1M78 17h1M82 17h1M0 18h1M5 18h1M9 18h1M78 18h1M82 18h1M0 19h1M5 19h1M9 19h1M78 19h1M82 19h1M0 20h1M5 20h1M9 20h1M78 20h1M82 20h1M0 21h1M5 21h1M9 21h1M78 21h1M82 21h1M0 22h1M5 22h1M9 22h1M78 22h1M82 22h1M0 23h1M5 23h1M9 23h1M78 23h1M82 23h1M0 24h1M5 24h1M9 24h1M78 24h1M82 24h1M0 25h1M5 25h1M9 25h1M78 25h1M82 25h1M0 26h1M5 26h1M9 26h1M78 26h1M82 26h1M0 27h1M5 27h1M9 27h1M78 27h1M82 27h1M0 28h1M5 28h1M9 28h1M78 28h1M82 28h1M0 29h1M5 29h1M9 29h1M78 29h1M82 29h1M0 30h1M5 30h1M9 30h1M78 30h1M82 30h1M0 31h1M5 31h1M9 31h1M78 31h1M82 31h1M0 32h1M5 32h1M9 32h1M78 32h1M82 32h1M0 33h1M5 33h1M9 33h1M78 33h1M82 33h1M0 34h1M5 34h1M9 34h1M78 34h1M82 34h1M0 35h1M5 35h1M9 35h1M78 35h1M82 35h1M0 36h1M5 36h1M9 36h1M78 36h1M82 36h1M0 37h1M5 37h1M9 37h1M78 37h1M82 37h1M0 38h1M5 38h1M9 38h1M78 38h1M82 38h1M0 39h1M5 39h1M9 39h1M78 39h1M82 39h1M0 40h1M5 40h1M9 40h1M78 40h1M82 40h1M0 41h1M5 41h1M9 41h1M78 41h1M82 41h1M0 42h1M5 42h1M9 42h1M78 42h1M82 42h1M0 43h1M5 43h1M9 43h1M78 43h1M82 43h1M0 44h1M5 44h1M9 44h1M78 44h1M82 44h1M0 45h1M5 45h1M9 45h1M78 45h1M82 45h1M0 46h1M5 46h1M9 46h1M78 46h1M82 46h1M0 47h1M5 47h1M9 47h1M78 47h1M82 47h1M0 48h1M5 48h1M9 48h1M78 48h1M82 48h1M0 49h1M5 49h1M9 49h1M78 49h1M82 49h1M0 50h1M5 50h1M9 50h1M78 50h1M82 50h1M0 51h1M5 51h1M9 51h1M78 51h1M82 51h1M0 52h1M5 52h1M9 52h1M78 52h1M82 52h1M0 53h1M5 53h1M9 53h1M78 53h1M82 53h1M0 54h1M5 54h1M9 54h1M78 54h1M82 54h1M0 55h1M5 55h1M9 55h1M78 55h1M82 55h1M0 56h1M5 56h1M9 56h1M78 56h1M82 56h1M0 57h1M5 57h1M9 57h1M78 57h1M82 57h1M0 58h1M5 58h1M9 58h1M78 58h1M82 58h1M0 59h1M5 59h1M9 59h1M78 59h1M82 59h1M0 60h1M5 60h1M9 60h1M78 60h1M82 60h1M0 61h1M5 61h1M9 61h1M78 61h1M82 61h1M0 62h1M5 62h1M9 62h1M78 62h1M82 62h1M0 63h1M5 63h1M9 63h1M78 63h1M82 63h1M0 64h1M5 64h1M9 64h1M78 64h1M82 64h1M0 65h1M5 65h1M9 65h1M78 65h1M82 65h1M0 66h1M5 66h1M9 66h1M78 66h1M82 66h1M0 67h1M5 67h1M9 67h1M78 67h1M82 67h1M0 68h1M5 68h1M9 68h1M78 68h1M82 68h1M0 69h1M5 69h1M9 69h1M78 69h1M82 69h1M0 70h1M5 70h1M9 70h1M78 70h1M82 70h1M0 71h1M5 71h1M9 71h1M78 71h1M82 71h1M0 72h1M5 72h1M9 72h1M78 72h1M82 72h1M0 73h1M5 73h1M9 73h1M78 73h1M82 73h1M0 74h1M5 74h1M9 74h1M78 74h1M82 74h1M0 75h1M5 75h1M9 75h1M78 75h1M82 75h1M0 76h1M5 76h1M9 76h1M78 76h1M82 76h1M0 77h1M5 77h1M9 77h1M78 77h1M82 77h1M0 78h1M5 78h1M9 78h1M78 78h1M82 78h1M0 79h1M5 79h1M9 79h1M78 79h1M82 79h1M0 80h1M5 80h1M9 80h1M78 80h1M82 80h1M0 81h1M5 81h1M9 81h1M78 81h1M82 81h1M0 82h1M5 82h1M9 82h1M78 82h1M82 82h1M0 83h1M5 83h1M9 83h1M78 83h1M82 83h1M0 84h1M5 84h1M9 84h1M78 84h1M82 84h1M0 85h1M5 85h1M9 85h1M78 85h1M82 85h1M0 86h1M5 86h1M9 86h1M78 86h1M82 86h1M0 87h1M5 87h1M9 87h1M78 87h1M82 87h1M0 88h1M5 88h1M9 88h1M78 88h1M82 88h1M0 89h1M5 89h1M9 89h1M78 89h1M82 89h1M0 90h1M5 90h1M9 90h1M78 90h1M82 90h1M0 91h1M5 91h1M9 91h1M78 91h1M82 91h1M0 92h1M5 92h1M9 92h1M78 92h1M82 92h1M0 93h1M5 93h1M9 93h1M78 93h1M82 93h1M0 94h1M5 94h1M9 94h1M78 94h1M82 94h1M0 95h1M5 95h1M9 95h1M78 95h1M82 95h1M0 96h1M5 96h1M9 96h1M78 96h1M82 96h1M0 97h1M5 97h1M9 97h1M78 97h1M82 97h1M0 98h1M5 98h1M9 98h1M78 98h1M82 98h1M0 99h1M5 99h1M9 99h1M78 99h1M82 99h1M0 100h1M5 100h1M9 100h70M82 100h1M0 101h1M5 101h1M82 101h1M0 102h1M5 102h1M82 102h1M0 103h1M5 103h1M82 103h1M0 104h1M5 104h1M82 104h1M0 105h1M5 105h1M82 105h1M0 106h1M5 106h1M82 106h1M0 107h1M5 107h1M82 107h1M0 108h1M5 108h1M32 108h1M35 108h1M38 108h1M41 108h1M44 108h1M47 108h1M50 108h1M52 108h2M82 108h1M0 109h1M5 109h1M32 109h1M35 109h1M38 109h1M40 109h1M42 109h1M44 109h1M47 109h1M50 109h1M52 109h1M82 109h1M0 110h1M5 110h1M33 110h2M36 110h2M40 110h1M42 110h1M45 110h2M48 110h2M52 110h2M82 110h1M0 111h1M5 111h1M82 111h1M0 112h1M5 112h1M82 112h1M0 113h1M5 113h1M82 113h1M0 114h1M5 114h1M82 114h1M0 115h1M5 115h1M82 115h1M0 116h1M6 116h1M81 116h1M0 117h1M7 117h74M0 118h1M0 119h1M0 120h87M0 121h1M14 121h1M73 121h1M0 122h1M14 122h1M73 122h1M0 123h1M14 123h1M73 123h1M0 124h1M14 124h1M73 124h1M0 125h1M14 125h1M73 125h1M0 126h1M14 126h1M73 126h1M0 127h1M14 127h1M73 127h1M0 128h1M14 128h1M73 128h1M0 129h1M0 130h1M0 131h1M0 132h1M0 133h1M0 134h1M0 135h1M0 136h1M0 137h1M0 138h1M0 139h1M0 140h1M0 141h1M4 141h1M0 142h1M3 142h1M84 142h1M0 143h1M3 143h1M84 143h1M0 144h1M3 144h1M84 144h1M0 145h1M3 145h1M84 145h1M0 146h1M3 146h1M84 146h1M0 147h1M3 147h1M84 147h1M0 148h1M3 148h1M84 148h1M0 149h1M3 149h1M84 149h1M0 150h1M3 150h1M84 150h1M0 151h1M3 151h1M84 151h1M0 152h1M3 152h1M84 152h1M0 153h1M3 153h1M84 153h1M0 154h1M3 154h1M84 154h1M0 155h1M3 155h1M84 155h1M0 156h1M3 156h1M84 156h1M0 157h1M3 157h1M84 157h1M0 158h1M3 158h1M84 158h1M0 159h1M3 159h1M84 159h1M0 160h1M3 160h1M84 160h1M0 161h1M3 161h1M84 161h1M0 162h1M3 162h1M84 162h1M0 163h1M3 163h1M84 163h1M0 164h1M3 164h1M84 164h1M0 165h1M3 165h1M84 165h1M0 166h1M3 166h1M84 166h1M0 167h1M3 167h1M84 167h1M0 168h1M3 168h1M84 168h1M0 169h1M3 169h1M84 169h1M0 170h1M3 170h1M84 170h1M0 171h1M3 171h1M84 171h1M0 172h1M3 172h1M84 172h1M0 173h1M3 173h1M84 173h1M0 174h1M3 174h1M84 174h1M0 175h1M3 175h1M84 175h1M0 176h1M3 176h1M84 176h1M0 177h1M3 177h1M84 177h1M0 178h1M3 178h1M84 178h1M0 179h1M3 179h1M84 179h1M0 180h1M3 180h1M84 180h1M0 181h1M3 181h1M84 181h1M0 182h1M3 182h1M84 182h1M0 183h1M3 183h1M84 183h1M0 184h1M3 184h1M84 184h1M0 185h1M3 185h1M84 185h1M0 186h1M3 186h1M84 186h1M0 187h1M3 187h1M84 187h1M0 188h1M3 188h1M84 188h1M0 189h1M3 189h1M84 189h1M0 190h1M3 190h1M84 190h1M0 191h1M3 191h1M84 191h1M0 192h1M3 192h1M84 192h1M0 193h1M3 193h1M84 193h1M0 194h1M3 194h1M84 194h1M0 195h1M3 195h1M84 195h1M0 196h1M3 196h1M84 196h1M0 197h1M3 197h1M84 197h1M0 198h1M3 198h1M84 198h1M0 199h1M3 199h1M84 199h1M0 200h1M3 200h1M84 200h1M0 201h1M3 201h1M84 201h1M0 202h1M3 202h1M84 202h1M0 203h1M3 203h1M84 203h1M0 204h1M3 204h1M84 204h1M0 205h1M3 205h1M84 205h1M0 206h1M3 206h1M84 206h1M0 207h1M3 207h1M84 207h1M0 208h1M3 208h1M84 208h1M0 209h1M3 209h1M84 209h1M0 210h1M3 210h1M84 210h1M0 211h1M3 211h1M84 211h1M0 212h1M3 212h1M84 212h1M0 213h1M3 213h1M84 213h1M0 214h1M3 214h1M84 214h1M0 215h1M3 215h1M84 215h1M0 216h1M3 216h1M84 216h1M0 217h1M3 217h1M84 217h1M0 218h1M3 218h1M84 218h1M0 219h1M3 219h1M84 219h1M0 220h1M3 220h1M84 220h1M0 221h1M3 221h1M84 221h1M0 222h1M3 222h1M84 222h1M0 223h1M3 223h1M84 223h1M0 224h1M3 224h1M84 224h1M0 225h1M3 225h1M84 225h1M0 226h1M3 226h1M84 226h1M0 227h1M3 227h1M84 227h1M0 228h1M3 228h1M84 228h1M0 229h1M3 229h1M84 229h1M0 230h1M3 230h1M84 230h1M0 231h1M3 231h1M84 231h1M0 232h1M3 232h1M84 232h1M0 233h1M3 233h1M84 233h1M0 234h1M3 234h1M84 234h1M0 235h1M3 235h1M84 235h1M0 236h1M3 236h1M84 236h1M0 237h1M3 237h1M84 237h1M0 238h1M3 238h1M84 238h1M0 239h1M3 239h1M84 239h1M0 240h1M3 240h1M84 240h1M0 241h1M3 241h1M84 241h1M0 242h1M4 242h1M83 242h1M0 243h1M5 243h78M0 244h1M0 245h1M0 246h1M0 247h1M0 248h1M0 249h1M40 249h2M45 249h2M0 250h1M0 251h1M0 252h1M0 253h1M0 254h1M1 255h1" />
<path stroke="#ffffff" d="M3 1h82M2 2h1M1 3h1M1 4h1M1 5h1M1 6h1M1 7h1M1 8h1M1 9h1M1 10h1M1 11h1M1 12h1M1 13h1M1 14h1M1 15h1M1 16h1M1 17h1M1 18h1M1 19h1M1 20h1M1 21h1M1 22h1M1 23h1M1 24h1M1 25h1M1 26h1M1 27h1M1 28h1M1 29h1M1 30h1M1 31h1M1 32h1M1 33h1M1 34h1M1 35h1M1 36h1M1 37h1M1 38h1M1 39h1M1 40h1M1 41h1M1 42h1M1 43h1M1 44h1M1 45h1M1 46h1M1 47h1M1 48h1M1 49h1M1 50h1M1 51h1M1 52h1M1 53h1M1 54h1M1 55h1M1 56h1M1 57h1M1 58h1M1 59h1M1 60h1M1 61h1M1 62h1M1 63h1M1 64h1M1 65h1M1 66h1M1 67h1M1 68h1M1 69h1M1 70h1M1 71h1M1 72h1M1 73h1M1 74h1M1 75h1M1 76h1M1 77h1M1 78h1M1 79h1M1 80h1M1 81h1M1 82h1M1 83h1M1 84h1M1 85h1M1 86h1M1 87h1M1 88h1M1 89h1M1 90h1M1 91h1M1 92h1M1 93h1M1 94h1M1 95h1M1 96h1M1 97h1M1 98h1M1 99h1M1 100h1M1 101h1M1 102h1M1 103h1M1 104h1M1 105h1M1 106h1M1 107h1M1 108h1M1 109h1M1 110h1M1 111h1M1 112h1M1 113h1M1 114h1M1 115h1M1 116h1M1 117h1M1 118h1M1 122h1M74 122h1M1 123h1M74 123h1M1 124h1M74 124h1M1 125h13M74 125h13M1 126h1M74 126h1M1 127h1M74 127h1M1 128h1M74 128h1M1 138h1M1 139h1M1 140h1M1 141h1M1 142h1M1 143h1M1 144h1M1 145h1M1 146h1M1 147h1M1 148h1M1 149h1M1 150h1M1 151h1M1 152h1M1 153h1M1 154h1M1 155h1M1 156h1M1 157h1M1 158h1M1 159h1M1 160h1M1 161h1M1 162h1M1 163h1M1 164h1M1 165h1M1 166h1M1 167h1M1 168h1M1 169h1M1 170h1M1 171h1M1 172h1M1 173h1M1 174h1M1 175h1M1 176h1M1 177h1M1 178h1M1 179h1M1 180h1M1 181h1M1 182h1M1 183h1M1 184h1M1 185h1M1 186h1M1 187h1M1 188h1M1 189h1M1 190h1M1 191h1M1 192h1M1 193h1M1 194h1M1 195h1M1 196h1M1 197h1M1 198h1M1 199h1M1 200h1M1 201h1M1 202h1M1 203h1M1 204h1M1 205h1M1 206h1M1 207h1M1 208h1M1 209h1M1 210h1M1 211h1M1 212h1M1 213h1M1 214h1M1 215h1M1 216h1M1 217h1M1 218h1M1 219h1M1 220h1M1 221h1M1 222h1M1 223h1M1 224h1M1 225h1M1 226h1M1 227h1M1 228h1M1 229h1M1 230h1M1 231h1M1 232h1M1 233h1M1 234h1M1 235h1M1 236h1M1 237h1M1 238h1M1 239h1M1 240h1M1 241h1M1 242h1M1 243h1M1 244h1M1 245h1M1 246h1M1 247h1M1 248h1M1 249h1M1 250h1M1 251h1M1 252h1M1 253h1M1 254h1" />
<path stroke="#f5f7fa" d="M3 2h83M2 3h84M2 4h84M2 5h37M48 5h38M2 6h84M2 7h37M48 7h38M2 8h84M2 9h84M2 10h84M2 11h84M2 12h5M81 12h5M2 13h4M82 13h4M2 14h3M83 14h3M2 15h3M83 15h3M2 16h3M83 16h3M2 17h3M83 17h3M2 18h3M83 18h3M2 19h3M83 19h3M2 20h3M83 20h3M2 21h3M83 21h3M2 22h3M83 22h3M2 23h3M83 23h3M2 24h3M83 24h3M2 25h3M83 25h3M2 26h3M83 26h3M2 27h3M83 27h3M2 28h3M83 28h3M2 29h3M83 29h3M2 30h3M83 30h3M2 31h3M83 31h3M2 32h3M83 32h3M2 33h3M83 33h3M2 34h3M83 34h3M2 35h3M83 35h3M2 36h3M83 36h3M2 37h3M83 37h3M2 38h3M83 38h3M2 39h3M83 39h3M2 40h3M83 40h3M2 41h3M83 41h3M2 42h3M83 42h3M2 43h3M83 43h3M2 44h3M83 44h3M2 45h3M83 45h3M2 46h3M83 46h3M2 47h3M83 47h3M2 48h3M83 48h3M2 49h3M83 49h3M2 50h3M83 50h3M2 51h3M83 51h3M2 52h3M83 52h3M2 53h3M83 53h3M2 54h3M83 54h3M2 55h3M83 55h3M2 56h3M83 56h3M2 57h3M83 57h3M2 58h3M83 58h3M2 59h3M83 59h3M2 60h3M83 60h3M2 61h3M83 61h3M2 62h3M83 62h3M2 63h3M83 63h3M2 64h3M83 64h3M2 65h3M83 65h3M2 66h3M83 66h3M2 67h3M83 67h3M2 68h3M83 68h3M2 69h3M83 69h3M2 70h3M83 70h3M2 71h3M83 71h3M2 72h3M83 72h3M2 73h3M83 73h3M2 74h3M83 74h3M2 75h3M83 75h3M2 76h3M83 76h3M2 77h3M83 77h3M2 78h3M83 78h3M2 79h3M83 79h3M2 80h3M83 80h3M2 81h3M83 81h3M2 82h3M83 82h3M2 83h3M83 83h3M2 84h3M83 84h3M2 85h3M83 85h3M2 86h3M83 86h3M2 87h3M83 87h3M2 88h3M83 88h3M2 89h3M83 89h3M2 90h3M83 90h3M2 91h3M83 91h3M2 92h3M83 92h3M2 93h3M83 93h3M2 94h3M83 94h3M2 95h3M83 95h3M2 96h3M83 96h3M2 97h3M83 97h3M2 98h3M83 98h3M2 99h3M83 99h3M2 100h3M83 100h3M2 101h3M83 101h3M2 102h3M83 102h3M2 103h3M83 103h3M2 104h3M83 104h3M2 105h3M83 105h3M2 106h3M83 106h3M2 107h3M83 107h3M2 108h3M83 108h3M2 109h3M83 109h3M2 110h3M83 110h3M2 111h3M83 111h3M2 112h3M83 112h3M2 113h3M83 113h3M2 114h3M83 114h3M2 115h3M83 115h3M2 116h4M82 116h4M2 117h5M81 117h5M2 118h84M1 119h1M1 121h1M15 122h1M2 123h12M15 123h1M75 123h12M2 124h12M15 124h1M75 124h12M15 125h58M2 126h12M15 126h1M75 126h12M2 127h12M15 127h1M75 127h12M2 128h12M15 128h1M75 128h12M1 129h13M74 129h13M1 130h13M74 130h13M1 131h13M74 131h13M1 132h1M1 133h13M74 133h13M1 134h1M1 135h1M1 136h1M2 139h1M2 140h2M83 140h3M2 141h2M84 141h2M2 142h1M85 142h1M2 143h1M83 143h1M85 143h1M2 144h1M83 144h1M85 144h1M2 145h1M83 145h1M85 145h1M2 146h1M83 146h1M85 146h1M2 147h1M83 147h1M85 147h1M2 148h1M83 148h1M85 148h1M2 149h1M83 149h1M85 149h1M2 150h1M83 150h1M85 150h1M2 151h1M83 151h1M85 151h1M2 152h1M83 152h1M85 152h1M2 153h1M83 153h1M85 153h1M2 154h1M83 154h1M85 154h1M2 155h1M83 155h1M85 155h1M2 156h1M83 156h1M85 156h1M2 157h1M83 157h1M85 157h1M2 158h1M83 158h1M85 158h1M2 159h1M83 159h1M85 159h1M2 160h1M83 160h1M85 160h1M2 161h1M83 161h1M85 161h1M2 162h1M83 162h1M85 162h1M2 163h1M83 163h1M85 163h1M2 164h1M83 164h1M85 164h1M2 165h1M83 165h1M85 165h1M2 166h1M83 166h1M85 166h1M2 167h1M83 167h1M85 167h1M2 168h1M83 168h1M85 168h1M2 169h1M83 169h1M85 169h1M2 170h1M83 170h1M85 170h1M2 171h1M83 171h1M85 171h1M2 172h1M83 172h1M85 172h1M2 173h1M83 173h1M85 173h1M2 174h1M83 174h1M85 174h1M2 175h1M83 175h1M85 175h1M2 176h1M83 176h1M85 176h1M2 177h1M83 177h1M85 177h1M2 178h1M83 178h1M85 178h1M2 179h1M83 179h1M85 179h1M2 180h1M83 180h1M85 180h1M2 181h1M83 181h1M85 181h1M2 182h1M83 182h1M85 182h1M2 183h1M83 183h1M85 183h1M2 184h1M83 184h1M85 184h1M2 185h1M83 185h1M85 185h1M2 186h1M83 186h1M85 186h1M2 187h1M83 187h1M85 187h1M2 188h1M83 188h1M85 188h1M2 189h1M83 189h1M85 189h1M2 190h1M83 190h1M85 190h1M2 191h1M83 191h1M85 191h1M2 192h1M83 192h1M85 192h1M2 193h1M83 193h1M85 193h1M2 194h1M83 194h1M85 194h1M2 195h1M83 195h1M85 195h1M2 196h1M83 196h1M85 196h1M2 197h1M83 197h1M85 197h1M2 198h1M83 198h1M85 198h1M2 199h1M83 199h1M85 199h1M2 200h1M83 200h1M85 200h1M2 201h1M83 201h1M85 201h1M2 202h1M83 202h1M85 202h1M2 203h1M83 203h1M85 203h1M2 204h1M83 204h1M85 204h1M2 205h1M83 205h1M85 205h1M2 206h1M83 206h1M85 206h1M2 207h1M83 207h1M85 207h1M2 208h1M83 208h1M85 208h1M2 209h1M83 209h1M85 209h1M2 210h1M83 210h1M85 210h1M2 211h1M83 211h1M85 211h1M2 212h1M83 212h1M85 212h1M2 213h1M83 213h1M85 213h1M2 214h1M83 214h1M85 214h1M2 215h1M83 215h1M85 215h1M2 216h1M83 216h1M85 216h1M2 217h1M83 217h1M85 217h1M2 218h1M83 218h1M85 218h1M2 219h1M83 219h1M85 219h1M2 220h1M83 220h1M85 220h1M2 221h1M83 221h1M85 221h1M2 222h1M83 222h1M85 222h1M2 223h1M83 223h1M85 223h1M2 224h1M83 224h1M85 224h1M2 225h1M83 225h1M85 225h1M2 226h1M83 226h1M85 226h1M2 227h1M83 227h1M85 227h1M2 228h1M83 228h1M85 228h1M2 229h1M83 229h1M85 229h1M2 230h1M83 230h1M85 230h1M2 231h1M83 231h1M85 231h1M2 232h1M83 232h1M85 232h1M2 233h1M83 233h1M85 233h1M2 234h1M83 234h1M85 234h1M2 235h1M83 235h1M85 235h1M2 236h1M83 236h1M85 236h1M2 237h1M83 237h1M85 237h1M2 238h1M83 238h1M85 238h1M2 239h1M83 239h1M85 239h1M2 240h1M83 240h1M85 240h1M2 241h1M83 241h1M85 241h1M2 242h2M6 242h77M84 242h2M2 243h3M83 243h3M2 244h84M2 245h84M2 246h84M2 247h84M2 248h84M2 249h37M48 249h38M2 250h84M2 251h84M2 252h84M2 253h84M2 254h83M2 255h1M3 256h1" />
<path stroke="#5b5c69" d="M86 2h1M87 3h1M87 4h1M42 5h3M87 5h1M87 6h1M42 7h3M87 7h1M87 8h1M87 9h1M87 10h1M87 11h1M87 12h1M87 13h1M87 14h1M87 15h1M87 16h1M87 17h1M87 18h1M87 19h1M87 20h1M87 21h1M87 22h1M87 23h1M87 24h1M87 25h1M87 26h1M87 27h1M87 28h1M87 29h1M87 30h1M87 31h1M87 32h1M87 33h1M87 34h1M87 35h1M87 36h1M87 37h1M87 38h1M87 39h1M87 40h1M87 41h1M87 42h1M87 43h1M87 44h1M87 45h1M87 46h1M87 47h1M87 48h1M87 49h1M87 50h1M87 51h1M87 52h1M87 53h1M87 54h1M87 55h1M87 56h1M87 57h1M87 58h1M87 59h1M87 60h1M87 61h1M87 62h1M87 63h1M87 64h1M87 65h1M87 66h1M87 67h1M87 68h1M87 69h1M87 70h1M87 71h1M87 72h1M87 73h1M87 74h1M87 75h1M87 76h1M87 77h1M87 78h1M87 79h1M87 80h1M87 81h1M87 82h1M87 83h1M87 84h1M87 85h1M87 86h1M87 87h1M87 88h1M87 89h1M87 90h1M87 91h1M87 92h1M87 93h1M87 94h1M87 95h1M87 96h1M87 97h1M87 98h1M87 99h1M87 100h1M87 101h1M87 102h1M87 103h1M87 104h1M87 105h1M87 106h1M87 107h1M87 108h1M87 109h1M87 110h1M87 111h1M87 112h1M87 113h1M87 114h1M87 115h1M87 116h1M87 117h1M87 118h1M87 119h1M87 120h1M87 121h1M87 122h1M87 123h1M87 124h1M87 125h1M87 126h1M87 127h1M87 128h1M14 129h1M73 129h1M87 129h1M14 130h1M73 130h1M87 130h1M14 131h1M73 131h1M87 131h1M14 132h1M73 132h1M87 132h1M14 133h1M73 133h1M87 133h1M87 134h1M87 135h1M87 136h1M1 137h1M87 137h1M87 138h1M87 139h1M5 140h78M87 140h1M83 141h1M87 141h1M87 142h1M87 143h1M87 144h1M87 145h1M87 146h1M87 147h1M87 148h1M87 149h1M87 150h1M87 151h1M87 152h1M87 153h1M87 154h1M87 155h1M87 156h1M87 157h1M87 158h1M87 159h1M87 160h1M87 161h1M87 162h1M87 163h1M87 164h1M87 165h1M87 166h1M87 167h1M87 168h1M87 169h1M87 170h1M87 171h1M87 172h1M87 173h1M87 174h1M87 175h1M87 176h1M87 177h1M87 178h1M87 179h1M87 180h1M87 181h1M87 182h1M87 183h1M87 184h1M87 185h1M87 186h1M87 187h1M87 188h1M87 189h1M87 190h1M87 191h1M87 192h1M87 193h1M87 194h1M87 195h1M87 196h1M87 197h1M87 198h1M87 199h1M87 200h1M87 201h1M87 202h1M87 203h1M87 204h1M87 205h1M87 206h1M87 207h1M87 208h1M87 209h1M87 210h1M87 211h1M87 212h1M87 213h1M87 214h1M87 215h1M87 216h1M87 217h1M87 218h1M87 219h1M87 220h1M87 221h1M87 222h1M87 223h1M87 224h1M87 225h1M87 226h1M87 227h1M87 228h1M87 229h1M87 230h1M87 231h1M87 232h1M87 233h1M87 234h1M87 235h1M87 236h1M87 237h1M87 238h1M87 239h1M87 240h1M87 241h1M87 242h1M87 243h1M87 244h1M87 245h1M87 246h1M87 247h1M87 248h1M42 249h3M87 249h1M87 250h1M87 251h1M87 252h1M87 253h1M87 254h1M86 255h1M2 256h1M85 256h1M3 257h82" />
<path stroke="#cdd2da" d="M86 3h1M86 4h1M39 5h1M47 5h1M86 5h1M86 6h1M39 7h1M47 7h1M86 7h1M86 8h1M86 9h1M86 10h1M86 11h1M86 12h1M86 13h1M86 14h1M86 15h1M86 16h1M86 17h1M86 18h1M86 19h1M86 20h1M86 21h1M86 22h1M86 23h1M86 24h1M86 25h1M86 26h1M86 27h1M86 28h1M86 29h1M86 30h1M86 31h1M86 32h1M86 33h1M86 34h1M86 35h1M86 36h1M86 37h1M86 38h1M86 39h1M86 40h1M86 41h1M86 42h1M86 43h1M86 44h1M86 45h1M86 46h1M86 47h1M86 48h1M86 49h1M86 50h1M86 51h1M86 52h1M86 53h1M86 54h1M86 55h1M86 56h1M86 57h1M86 58h1M86 59h1M86 60h1M86 61h1M86 62h1M86 63h1M86 64h1M86 65h1M86 66h1M86 67h1M86 68h1M86 69h1M86 70h1M86 71h1M86 72h1M86 73h1M86 74h1M86 75h1M86 76h1M86 77h1M86 78h1M86 79h1M86 80h1M86 81h1M86 82h1M86 83h1M86 84h1M86 85h1M86 86h1M86 87h1M86 88h1M86 89h1M86 90h1M86 91h1M86 92h1M86 93h1M86 94h1M86 95h1M86 96h1M86 97h1M86 98h1M86 99h1M86 100h1M86 101h1M86 102h1M86 103h1M86 104h1M86 105h1M86 106h1M86 107h1M86 108h1M86 109h1M86 110h1M86 111h1M86 112h1M86 113h1M86 114h1M86 115h1M86 116h1M86 117h1M86 118h1M2 119h85M2 121h12M74 121h13M2 122h12M75 122h12M2 132h12M74 132h13M2 134h12M74 134h13M2 135h12M74 135h13M2 136h12M74 136h13M2 138h85M3 139h84M4 140h1M86 140h1M86 141h1M86 142h1M86 143h1M86 144h1M86 145h1M86 146h1M86 147h1M86 148h1M86 149h1M86 150h1M86 151h1M86 152h1M86 153h1M86 154h1M86 155h1M86 156h1M86 157h1M86 158h1M86 159h1M86 160h1M86 161h1M86 162h1M86 163h1M86 164h1M86 165h1M86 166h1M86 167h1M86 168h1M86 169h1M86 170h1M86 171h1M86 172h1M86 173h1M86 174h1M86 175h1M86 176h1M86 177h1M86 178h1M86 179h1M86 180h1M86 181h1M86 182h1M86 183h1M86 184h1M86 185h1M86 186h1M86 187h1M86 188h1M86 189h1M86 190h1M86 191h1M86 192h1M86 193h1M86 194h1M86 195h1M86 196h1M86 197h1M86 198h1M86 199h1M86 200h1M86 201h1M86 202h1M86 203h1M86 204h1M86 205h1M86 206h1M86 207h1M86 208h1M86 209h1M86 210h1M86 211h1M86 212h1M86 213h1M86 214h1M86 215h1M86 216h1M86 217h1M86 218h1M86 219h1M86 220h1M86 221h1M86 222h1M86 223h1M86 224h1M86 225h1M86 226h1M86 227h1M86 228h1M86 229h1M86 230h1M86 231h1M86 232h1M86 233h1M86 234h1M86 235h1M86 236h1M86 237h1M86 238h1M86 239h1M86 240h1M86 241h1M86 242h1M86 243h1M86 244h1M86 245h1M86 246h1M86 247h1M86 248h1M39 249h1M47 249h1M86 249h1M86 250h1M86 251h1M86 252h1M86 253h1M85 254h2M3 255h83M4 256h81" />
<path stroke="#ebf0f6" d="M7 13h74M6 14h76M6 15h76M6 16h3M79 16h3M6 17h3M79 17h3M6 18h3M79 18h3M6 19h3M79 19h3M6 20h3M79 20h3M6 21h3M79 21h3M6 22h3M79 22h3M6 23h3M79 23h3M6 24h3M79 24h3M6 25h3M79 25h3M6 26h3M79 26h3M6 27h3M79 27h3M6 28h3M79 28h3M6 29h3M79 29h3M6 30h3M79 30h3M6 31h3M79 31h3M6 32h3M79 32h3M6 33h3M79 33h3M6 34h3M79 34h3M6 35h3M79 35h3M6 36h3M79 36h3M6 37h3M79 37h3M6 38h3M79 38h3M6 39h3M79 39h3M6 40h3M79 40h3M6 41h3M79 41h3M6 42h3M79 42h3M6 43h3M79 43h3M6 44h3M79 44h3M6 45h3M79 45h3M6 46h3M79 46h3M6 47h3M79 47h3M6 48h3M79 48h3M6 49h3M79 49h3M6 50h3M79 50h3M6 51h3M79 51h3M6 52h3M79 52h3M6 53h3M79 53h3M6 54h3M79 54h3M6 55h3M79 55h3M6 56h3M79 56h3M6 57h3M79 57h3M6 58h3M79 58h3M6 59h3M79 59h3M6 60h3M79 60h3M6 61h3M79 61h3M6 62h3M79 62h3M6 63h3M79 63h3M6 64h3M79 64h3M6 65h3M79 65h3M6 66h3M79 66h3M6 67h3M79 67h3M6 68h3M79 68h3M6 69h3M79 69h3M6 70h3M79 70h3M6 71h3M79 71h3M6 72h3M79 72h3M6 73h3M79 73h3M6 74h3M79 74h3M6 75h3M79 75h3M6 76h3M79 76h3M6 77h3M79 77h3M6 78h3M79 78h3M6 79h3M79 79h3M6 80h3M79 80h3M6 81h3M79 81h3M6 82h3M79 82h3M6 83h3M79 83h3M6 84h3M79 84h3M6 85h3M79 85h3M6 86h3M79 86h3M6 87h3M79 87h3M6 88h3M79 88h3M6 89h3M79 89h3M6 90h3M79 90h3M6 91h3M79 91h3M6 92h3M79 92h3M6 93h3M79 93h3M6 94h3M79 94h3M6 95h3M79 95h3M6 96h3M79 96h3M6 97h3M79 97h3M6 98h3M79 98h3M6 99h3M79 99h3M6 100h3M79 100h3M6 101h76M6 102h76M6 103h76M6 104h76M6 105h76M6 106h76M6 107h76M6 108h26M33 108h2M36 108h2M39 108h2M42 108h2M45 108h2M48 108h2M51 108h1M54 108h28M6 109h26M33 109h2M36 109h2M39 109h1M41 109h1M43 109h1M45 109h2M48 109h2M51 109h1M53 109h29M6 110h27M35 110h1M38 110h2M41 110h1M43 110h2M47 110h1M50 110h2M54 110h28M6 111h76M6 112h76M6 113h76M6 114h76M6 115h76M7 116h74M16 123h57M16 124h57M16 126h57M16 127h57M16 128h57M15 129h58M15 130h58M15 131h58M15 133h58M6 142h77M5 143h78M5 144h78M5 145h78M5 146h78M5 147h78M5 148h78M5 149h78M5 150h78M5 151h78M5 152h78M5 153h78M5 154h78M5 155h78M5 156h78M5 157h78M5 158h78M5 159h78M5 160h78M5 161h78M5 162h78M5 163h78M5 164h78M5 165h78M5 166h78M5 167h78M5 168h78M5 169h78M5 170h78M5 171h78M5 172h78M5 173h78M5 174h78M5 175h78M5 176h78M5 177h78M5 178h78M5 179h78M5 180h78M5 181h78M5 182h78M5 183h78M5 184h78M5 185h78M5 186h78M5 187h78M5 188h78M5 189h78M5 190h78M5 191h78M5 192h78M5 193h78M5 194h78M5 195h78M5 196h78M5 197h78M5 198h78M5 199h78M5 200h78M5 201h78M5 202h78M5 203h78M5 204h78M5 205h78M5 206h78M5 207h78M5 208h78M5 209h78M5 210h78M5 211h78M5 212h78M5 213h78M5 214h78M5 215h78M5 216h78M5 217h78M5 218h78M5 219h78M5 220h78M5 221h78M5 222h78M5 223h78M5 224h78M5 225h78M5 226h78M5 227h78M5 228h78M5 229h78M5 230h78M5 231h78M5 232h78M5 233h78M5 234h78M5 235h78M5 236h78M5 237h78M5 238h78M5 239h78M5 240h78M5 241h78" />
<path stroke="#bac7db" d="M10 17h68M10 18h68M10 19h68M10 20h68M10 21h68M10 22h68M10 23h68M10 24h68M10 25h68M10 26h68M10 27h68M10 28h68M10 29h68M10 30h68M10 31h68M10 32h68M10 33h68M10 34h68M10 35h68M10 36h68M10 37h68M10 38h68M10 39h68M10 40h68M10 41h68M10 42h68M10 43h68M10 44h68M10 45h68M10 46h68M10 47h68M10 48h68M10 49h68M10 50h68M10 51h68M10 52h68M10 53h68M10 54h68M10 55h68M10 56h68M10 57h68M10 58h68M10 59h68M10 60h68M10 61h68M10 62h68M10 63h68M10 64h68M10 65h68M10 66h68M10 67h68M10 68h68M10 69h68M10 70h68M10 71h68M10 72h68M10 73h68M10 74h68M10 75h68M10 76h68M10 77h68M10 78h68M10 79h68M10 80h68M10 81h68M10 82h68M10 83h68M10 84h68M10 85h68M10 86h68M10 87h68M10 88h68M10 89h68M10 90h68M10 91h68M10 92h68M10 93h68M10 94h68M10 95h68M10 96h68M10 97h68M10 98h68M10 99h68M15 121h58M16 122h57M15 132h58M15 134h58M15 135h58M15 136h58M5 141h78M4 142h2M83 142h1M4 143h1M4 144h1M4 145h1M4 146h1M4 147h1M4 148h1M4 149h1M4 150h1M4 151h1M4 152h1M4 153h1M4 154h1M4 155h1M4 156h1M4 157h1M4 158h1M4 159h1M4 160h1M4 161h1M4 162h1M4 163h1M4 164h1M4 165h1M4 166h1M4 167h1M4 168h1M4 169h1M4 170h1M4 171h1M4 172h1M4 173h1M4 174h1M4 175h1M4 176h1M4 177h1M4 178h1M4 179h1M4 180h1M4 181h1M4 182h1M4 183h1M4 184h1M4 185h1M4 186h1M4 187h1M4 188h1M4 189h1M4 190h1M4 191h1M4 192h1M4 193h1M4 194h1M4 195h1M4 196h1M4 197h1M4 198h1M4 199h1M4 200h1M4 201h1M4 202h1M4 203h1M4 204h1M4 205h1M4 206h1M4 207h1M4 208h1M4 209h1M4 210h1M4 211h1M4 212h1M4 213h1M4 214h1M4 215h1M4 216h1M4 217h1M4 218h1M4 219h1M4 220h1M4 221h1M4 222h1M4 223h1M4 224h1M4 225h1M4 226h1M4 227h1M4 228h1M4 229h1M4 230h1M4 231h1M4 232h1M4 233h1M4 234h1M4 235h1M4 236h1M4 237h1M4 238h1M4 239h1M4 240h1M4 241h1M5 242h1" />
<path stroke="#48474d" d="M14 134h1M73 134h1M14 135h1M73 135h1M14 136h1M73 136h1M2 137h85" />
</svg>