<?xml version="1.0" encoding="UTF-8" ?>
<svg xmlns="http://www.w3.org/2000/svg" xmlns:xlink="http://www.w3.org/1999/xlink" shape-rendering="crispEdges" stroke="none" preserveAspectRatio="xMidYMid slice" width="9" height="9" viewBox="0 0 9 9">
<path id="00ff988b82" fill="#828B98" d="M 3 0 L 4 0 L 4 1 L 3 1 Z M 4 0 L 5 0 L 5 1 L 4 1 Z M 5 0 L 6 0 L 6 1 L 5 1 Z M 2 1 L 3 1 L 3 2 L 2 2 Z M 6 1 L 7 1 L 7 2 L 6 2 Z M 1 2 L 2 2 L 2 3 L 1 3 Z M 0 3 L 1 3 L 1 4 L 0 4 Z M 0 4 L 1 4 L 1 5 L 0 5 Z M 0 5 L 1 5 L 1 6 L 0 6 Z M 1 6 L 2 6 L 2 7 L 1 7 Z" />
<path id="00fffaf7f5" fill="#F5F7FA" d="M 7 2 L 8 2 L 8 3 L 7 3 Z M 8 3 L 9 3 L 9 4 L 8 4 Z M 8 4 L 9 4 L 9 5 L 8 5 Z M 8 5 L 9 5 L 9 6 L 8 6 Z M 7 6 L 8 6 L 8 7 L 7 7 Z M 2 7 L 3 7 L 3 8 L 2 8 Z M 6 7 L 7 7 L 7 8 L 6 8 Z M 3 8 L 4 8 L 4 9 L 3 9 Z M 4 8 L 5 8 L 5 9 L 4 9 Z M 5 8 L 6 8 L 6 9 L 5 9 Z" />
</svg>