<?xml version="1.0" encoding="UTF-8" ?>
<svg xmlns="http://www.w3.org/2000/svg" xmlns:xlink="http://www.w3.org/1999/xlink" shape-rendering="crispEdges" stroke="none" preserveAspectRatio="xMidYMid slice" width="8" height="8" viewBox="0 0 8 8">
<path id="00ff232322" fill="#222323" d="M 1 0 L 2 0 L 2 1 L 1 1 Z M 2 0 L 3 0 L 3 1 L 2 1 Z M 3 0 L 4 0 L 4 1 L 3 1 Z M 4 0 L 5 0 L 5 1 L 4 1 Z M 5 0 L 6 0 L 6 1 L 5 1 Z M 0 1 L 1 1 L 1 2 L 0 2 Z M 6 1 L 7 1 L 7 2 L 6 2 Z M 0 2 L 1 2 L 1 3 L 0 3 Z M 6 2 L 7 2 L 7 3 L 6 3 Z M 7 2 L 8 2 L 8 3 L 7 3 Z M 0 3 L 1 3 L 1 4 L 0 4 Z M 6 3 L 7 3 L 7 4 L 6 4 Z M 7 3 L 8 3 L 8 4 L 7 4 Z M 0 4 L 1 4 L 1 5 L 0 5 Z M 6 4 L 7 4 L 7 5 L 6 5 Z M 7 4 L 8 4 L 8 5 L 7 5 Z M 0 5 L 1 5 L 1 6 L 0 6 Z M 6 5 L 7 5 L 7 6 L 6 6 Z M 7 5 L 8 5 L 8 6 L 7 6 Z M 1 6 L 2 6 L 2 7 L 1 7 Z M 2 6 L 3 6 L 3 7 L 2 7 Z M 3 6 L 4 6 L 4 7 L 3 7 Z M 4 6 L 5 6 L 5 7 L 4 7 Z M 5 6 L 6 6 L 6 7 L 5 7 Z M 6 6 L 7 6 L 7 7 L 6 7 Z M 2 7 L 3 7 L 3 8 L 2 8 Z M 3 7 L 4 7 L 4 8 L 3 8 Z M 4 7 L 5 7 L 5 8 L 4 8 Z M 5 7 L 6 7 L 6 8 L 5 8 Z" />
</svg>